<svg aria-hidden="true" style="position:absolute;width:0;height:0;overflow:hidden" xmlns="http://www.w3.org/2000/svg"><defs><symbol id="icon-facebook" viewBox="0 0 32 32"><path d="M16 0A15.997 15.997 0 0 0 2.696 24.889 16 16 0 1 0 16 .001zm3.429 11.527h-2.176a.733.733 0 0 0-.544.792v1.569h2.72v2.24h-2.72v6.728h-2.568v-6.728H11.81v-2.24h2.328V12.57a3.225 3.225 0 0 1 .833-2.371 3.241 3.241 0 0 1 2.28-1.057h2.179v2.385z"/></symbol><symbol id="icon-close-menu" viewBox="0 0 32 32"><path d="M31.439 3.166 28.273 0 15.72 12.553 3.167 0 .001 3.166l12.553 12.553L.001 28.272l3.166 3.166L15.72 18.885l12.553 12.553 3.166-3.166-12.553-12.553L31.439 3.166z"/></symbol><symbol id="icon-open-menu" viewBox="0 0 32 32"><path d="M0 8.889V5.333h32v3.556H0zm0 8.889h32v-3.556H0v3.556zm0 8.889h32v-3.556H0v3.556z"/></symbol><symbol id="icon-linkedin" viewBox="0 0 32 32"><path d="M16 0a15.998 15.998 0 0 1 11.313 27.313 16.002 16.002 0 0 1-24.617-2.425A16 16 0 0 1 16-.001zm-3.33 22.857v-8.229h-2.613v8.229h2.613zm-1.307-9.348a1.45 1.45 0 0 0 1.445-1.458 1.457 1.457 0 0 0-1.453-1.449 1.456 1.456 0 0 0-1.453 1.449 1.451 1.451 0 0 0 1.445 1.458h.018zm2.753 9.348h2.614v-4.594c-.01-.224.019-.448.086-.663a1.437 1.437 0 0 1 1.341-1.005c.946 0 1.324.754 1.324 1.859v4.404h2.614v-4.716c0-2.53-1.29-3.703-3.01-3.703a2.6 2.6 0 0 0-2.374 1.387h.017V14.63h-2.614c.035.777 0 8.229 0 8.229z"/></symbol><symbol id="icon-polygon1" viewBox="0 0 32 32"><path d="M16 24 29.856 9.6H2.143L15.999 24z"/></symbol><symbol id="icon-twitter" viewBox="0 0 32 32"><path d="M16 0a15.998 15.998 0 0 1 11.313 27.313A15.998 15.998 0 0 1 0 15.999a15.997 15.997 0 0 1 16-16zm7.628 11.352a6.446 6.446 0 0 1-1.797.488 3.094 3.094 0 0 0 1.377-1.707 6.22 6.22 0 0 1-1.989.747 3.156 3.156 0 0 0-2.286-.967 3.103 3.103 0 0 0-3.13 3.071c-.001.236.027.471.082.701a8.904 8.904 0 0 1-6.452-3.208 3.036 3.036 0 0 0 .969 4.099 3.176 3.176 0 0 1-1.419-.381v.038a3.103 3.103 0 0 0 2.511 3.017 3.23 3.23 0 0 1-1.413.054 3.133 3.133 0 0 0 2.924 2.133 6.36 6.36 0 0 1-3.886 1.311c-.252 0-.501-.015-.747-.038a9.006 9.006 0 0 0 4.8 1.379 8.764 8.764 0 0 0 8.907-8.747c0-.13 0-.267-.01-.396a6.294 6.294 0 0 0 1.56-1.592z"/></symbol><symbol id="icon-Youtube" viewBox="0 0 32 32"><path d="M24.889 2.696A16 16 0 1 0 7.112 29.303 16 16 0 0 0 24.889 2.697zM8.525 10.778a3.154 3.154 0 0 1 2.188-.873h10.573c.821 0 1.608.314 2.188.873s.906 1.317.906 2.107v6.231c0 .79-.326 1.548-.906 2.107s-1.367.873-2.188.873H10.713c-.821 0-1.608-.314-2.188-.873s-.906-1.317-.906-2.107v-6.231c0-.79.326-1.548.906-2.107zm5.57 8.05 5.486-2.706c.023-.011.042-.029.056-.05s.021-.046.021-.071-.007-.049-.021-.071a.142.142 0 0 0-.056-.05l-5.486-2.709a.148.148 0 0 0-.137.004c-.021.012-.038.029-.05.049s-.018.043-.018.066v5.418a.13.13 0 0 0 .068.115c.021.012.044.019.068.019s.048-.005.069-.015z"/></symbol></defs></svg>