<svg width="150" height="40" viewBox="0 0 150 40" fill="none" xmlns="http://www.w3.org/2000/svg">
<path d="M56.6671 15.6794C56.4404 15.6794 56.2477 15.8713 56.2477 16.0971V22.2774C56.2477 24.9753 54.7854 26.3525 52.5126 26.3525C50.1378 26.3525 48.7095 24.8342 48.7095 22.1984V16.0914C48.7095 15.8657 48.5167 15.6738 48.29 15.6738C48.0633 15.6738 47.8706 15.8657 47.8706 16.0914V22.2718C47.8706 25.4043 49.7807 27.0975 52.4729 27.0975C55.1992 27.0975 57.0752 25.3873 57.0752 22.1758V16.0914C57.0865 15.8713 56.8938 15.6794 56.6671 15.6794ZM63.1115 18.5861C61.6208 18.5861 60.7026 19.3368 60.1585 20.2963V19.1167C60.1585 18.8796 59.9828 18.7159 59.7561 18.7159C59.5294 18.7159 59.3707 18.8909 59.3707 19.1167V26.5952C59.3707 26.8322 59.5464 26.9959 59.7731 26.9959C59.9998 26.9959 60.1585 26.8379 60.1585 26.5952V22.2153C60.1585 20.5221 61.3941 19.3086 62.9981 19.3086C64.6531 19.3086 65.5997 20.4092 65.5997 22.0855V26.5895C65.5997 26.8266 65.7754 26.9903 66.0021 26.9903C66.2288 26.9903 66.3875 26.8322 66.3875 26.5895V21.9388C66.3818 19.9915 65.1803 18.5861 63.1115 18.5861ZM68.8587 15.5044C68.5866 15.5044 68.3769 15.7133 68.3769 15.9842V16.2551C68.3769 16.526 68.5866 16.7349 68.8587 16.7349C69.1308 16.7349 69.3575 16.526 69.3575 16.2551V15.9842C69.3575 15.7076 69.1308 15.5044 68.8587 15.5044ZM68.8587 18.7159C68.632 18.7159 68.4733 18.8909 68.4733 19.1167V26.5952C68.4733 26.8322 68.649 26.9959 68.8757 26.9959C69.1024 26.9959 69.2611 26.8379 69.2611 26.5952V19.111C69.2611 18.874 69.0854 18.7159 68.8587 18.7159ZM75.1444 19.4948C75.3371 19.4948 75.5128 19.3368 75.5128 19.1449C75.5128 18.953 75.3371 18.778 75.1444 18.778H72.5768V16.5091C72.5768 16.2833 72.4011 16.1084 72.1744 16.1084C71.9477 16.1084 71.789 16.2833 71.789 16.5091V18.778H70.9048C70.7121 18.778 70.5364 18.9361 70.5364 19.128C70.5364 19.3199 70.7121 19.4948 70.9048 19.4948H71.789V24.8342C71.789 26.3863 72.8149 27.0693 74.0845 27.0693C74.5492 27.0693 74.9176 26.9733 75.2407 26.8604C75.3994 26.7984 75.4958 26.6855 75.4958 26.5274C75.4958 26.3355 75.3201 26.1775 75.1444 26.1775C75.031 26.1775 74.776 26.3355 74.2148 26.3355C73.2683 26.3355 72.5768 25.9179 72.5768 24.7552V19.5005H75.1444V19.4948ZM79.6843 18.5861C77.4682 18.5861 75.8018 20.4713 75.8018 22.8362V22.87C75.8018 25.4099 77.6609 27.1201 79.8147 27.1201C81.2883 27.1201 82.2065 26.5952 83.0057 25.7937C83.102 25.6977 83.136 25.6018 83.136 25.5228C83.136 25.3139 82.9603 25.1559 82.7506 25.1559C82.6373 25.1559 82.5579 25.2011 82.4956 25.2688C81.8381 25.9066 81.0219 26.3863 79.8487 26.3863C78.2447 26.3863 76.7824 25.2067 76.6407 23.1748H76.6463C76.6463 23.1748 76.635 22.6386 76.6463 22.4411C76.6463 22.4411 76.652 22.3733 76.652 22.3621C76.652 22.3733 76.652 22.3959 76.6463 22.4411C76.805 20.6519 78.0463 19.3086 79.656 19.3086C81.532 19.3086 82.4786 20.8269 82.5919 22.4693H79.9507V22.4749C79.758 22.4749 79.5993 22.633 79.5993 22.8249C79.5993 23.0168 79.758 23.1748 79.9507 23.1748H83.0567C83.2494 23.1748 83.4421 22.9998 83.4421 22.8079C83.4364 20.4713 81.9798 18.5861 79.6843 18.5861ZM92.2386 15.1996C92.0119 15.1996 91.8532 15.3577 91.8532 15.6004V20.539C91.1787 19.5174 90.1189 18.5918 88.4865 18.5918C86.5141 18.5918 84.5077 20.206 84.5077 22.8587V22.8926C84.5077 25.5454 86.5141 27.1257 88.4865 27.1257C90.1075 27.1257 91.1504 26.1831 91.8532 25.1108V26.5952C91.8532 26.8322 92.0289 26.9959 92.2556 26.9959C92.4824 26.9959 92.6411 26.8379 92.6411 26.5952V15.6004C92.6411 15.3577 92.4654 15.1996 92.2386 15.1996ZM91.8986 22.8644C91.8986 24.9414 90.2606 26.3638 88.5602 26.3638C86.8428 26.3638 85.3522 24.9922 85.3522 22.8475V22.8136C85.3522 20.6237 86.7805 19.3312 88.5602 19.3312C90.2606 19.3312 91.8986 20.7366 91.8986 22.8305V22.8644ZM105.428 22.2266C105.439 22.1984 105.445 22.1702 105.45 22.1363C107.304 21.8597 108.658 20.7986 108.658 18.953V18.9191C108.658 18.1177 108.335 17.367 107.808 16.8421C107.134 16.1704 106.029 15.7415 104.646 15.7415H100.344C100.117 15.7415 99.9243 15.9334 99.9243 16.1592V26.5726C99.9243 26.7984 100.117 26.9903 100.344 26.9903C100.57 26.9903 100.763 26.7984 100.763 26.5726V16.5091H104.595C106.629 16.5091 107.82 17.4517 107.82 18.953V18.9869C107.82 20.4882 106.612 21.4082 104.929 21.5267C104.923 21.5267 104.923 21.5267 104.918 21.5267C104.623 21.5267 104.385 21.7638 104.385 22.0573C104.385 22.1927 104.436 22.3113 104.521 22.4072H104.515L107.876 26.7645C107.973 26.8943 108.086 26.9903 108.245 26.9903C108.471 26.9903 108.675 26.7814 108.675 26.5613C108.675 26.4654 108.63 26.3694 108.545 26.2734L105.428 22.2266ZM113.981 18.5861C111.543 18.5861 109.764 20.5672 109.764 22.8531V22.887C109.764 25.1728 111.526 27.1201 113.952 27.1201C116.389 27.1201 118.169 25.139 118.169 22.8531V22.8192C118.169 20.5334 116.406 18.5861 113.981 18.5861ZM117.319 22.8813C117.319 24.8003 115.925 26.3807 113.981 26.3807C112.087 26.3807 110.614 24.8173 110.614 22.8475V22.8136C110.614 20.8946 112.008 19.3142 113.952 19.3142C115.845 19.3142 117.319 20.8777 117.319 22.8475V22.8813ZM123.962 18.5861C122.341 18.5861 121.298 19.5287 120.595 20.6011V15.6004C120.595 15.3633 120.419 15.1996 120.193 15.1996C119.966 15.1996 119.807 15.3577 119.807 15.6004V26.5895C119.807 26.8153 119.983 26.9903 120.21 26.9903C120.436 26.9903 120.595 26.8153 120.595 26.5895V25.1672C121.269 26.1888 122.329 27.1144 123.962 27.1144C125.934 27.1144 127.94 25.5002 127.94 22.8475V22.8136C127.94 20.1665 125.934 18.5861 123.962 18.5861ZM127.09 22.8813C127.09 25.0712 125.662 26.3638 123.882 26.3638C122.182 26.3638 120.544 24.9584 120.544 22.8644V22.8305C120.544 20.7535 122.182 19.3312 123.882 19.3312C125.6 19.3312 127.09 20.7027 127.09 22.8475V22.8813ZM133.291 18.5861C130.854 18.5861 129.074 20.5672 129.074 22.8531V22.887C129.074 25.1728 130.837 27.1201 133.263 27.1201C135.7 27.1201 137.48 25.139 137.48 22.8531V22.8192C137.48 20.5334 135.717 18.5861 133.291 18.5861ZM136.629 22.8813C136.629 24.8003 135.235 26.3807 133.291 26.3807C131.398 26.3807 129.924 24.8173 129.924 22.8475V22.8136C129.924 20.8946 131.319 19.3142 133.263 19.3142C135.156 19.3142 136.629 20.8777 136.629 22.8475V22.8813ZM142.62 19.4948C142.813 19.4948 142.989 19.3368 142.989 19.1449C142.989 18.953 142.813 18.778 142.62 18.778H140.053V16.5091C140.053 16.2833 139.877 16.1084 139.65 16.1084C139.424 16.1084 139.265 16.2833 139.265 16.5091V18.778H138.381C138.188 18.778 138.012 18.9361 138.012 19.128C138.012 19.3199 138.188 19.4948 138.381 19.4948H139.265V24.8342C139.265 26.3863 140.291 27.0693 141.56 27.0693C142.025 27.0693 142.394 26.9733 142.717 26.8604C142.875 26.7984 142.972 26.6855 142.972 26.5274C142.972 26.3355 142.796 26.1775 142.62 26.1775C142.507 26.1775 142.252 26.3355 141.691 26.3355C140.744 26.3355 140.053 25.9179 140.053 24.7552V19.5005H142.62V19.4948ZM147.308 22.3903C146.134 22.0573 145.029 21.7186 145.029 20.8099V20.7761C145.029 19.9633 145.766 19.3537 146.888 19.3537C147.676 19.3537 148.458 19.6077 149.167 20.0254C149.212 20.0593 149.297 20.0875 149.393 20.0875C149.603 20.0875 149.779 19.9125 149.779 19.7037C149.779 19.5287 149.665 19.4158 149.569 19.3537C148.781 18.9078 147.806 18.62 146.922 18.62C145.335 18.62 144.23 19.5626 144.23 20.872V20.9059C144.23 22.3621 145.704 22.7572 147.036 23.141C148.175 23.4627 149.201 23.8126 149.201 24.7721V24.806C149.201 25.7485 148.333 26.3581 147.228 26.3581C146.248 26.3581 145.352 26.0364 144.502 25.4325C144.44 25.3873 144.343 25.3535 144.247 25.3535C144.037 25.3535 143.862 25.5284 143.862 25.7373C143.862 25.8671 143.941 25.9912 144.003 26.042C144.836 26.6629 146.072 27.0975 147.177 27.0975C148.747 27.0975 150 26.1719 150 24.7157V24.6818C150.005 23.2369 148.623 22.7572 147.308 22.3903Z" fill="#101010"/>
<path fill-rule="evenodd" clip-rule="evenodd" d="M20.0812 0C31.1732 0 40.1681 8.9516 40.1681 19.9972C40.1681 31.0428 31.1732 40 20.0812 40C8.98923 40 0 31.0428 0 19.9972C0 8.9516 8.98923 0 20.0812 0Z" fill="#101010"/>
<path fill-rule="evenodd" clip-rule="evenodd" d="M15.4052 10.9383L24.1791 19.6755C24.3888 19.8843 24.3888 20.2173 24.1791 20.4261C23.9694 20.635 23.635 20.635 23.4253 20.4261L14.6514 11.689C14.4417 11.4802 14.4417 11.1472 14.6514 10.9383C14.8555 10.7295 15.1955 10.7295 15.4052 10.9383Z" fill="#FF0000"/>
<path fill-rule="evenodd" clip-rule="evenodd" d="M20.4157 20.2004C20.4157 20.2004 20.4157 20.951 20.4157 21.1994C20.4157 23.8804 18.2336 26.0477 15.547 26.0477C12.8548 26.0477 10.6784 23.8747 10.6784 21.1994C10.6784 19.6529 10.6784 15.4198 10.6784 15.4198C10.6784 15.1263 10.4403 14.8892 10.1456 14.8892C9.85084 14.8892 9.61279 15.1263 9.61279 15.4198V21.1317C9.61279 21.1373 9.61279 21.1429 9.61279 21.1429C9.61279 21.1599 9.61279 21.1768 9.61279 21.1937C9.61279 24.4617 12.271 27.1088 15.5527 27.1088C18.8344 27.1088 21.4926 24.4617 21.4926 21.1937C21.4926 20.9567 21.4926 20.1947 21.4926 20.1947L20.4271 19.1336V20.2004H20.4157ZM30.6292 26.2283L27.1718 22.7854C27.1888 22.7572 27.2002 22.7233 27.2115 22.6951C29.1726 22.4693 30.6916 20.8156 30.6916 18.8063C30.6916 16.6615 28.9629 14.9231 26.8204 14.8892V14.9062C26.7751 14.8949 26.7354 14.8892 26.6844 14.8892H21.0845L22.1501 15.9503H26.6844C26.7297 15.9503 26.7751 15.9447 26.8204 15.9334V15.956C28.3734 15.9898 29.6203 17.2541 29.6203 18.8119C29.6203 20.3697 28.3734 21.6283 26.8204 21.6678V21.6735C26.8204 21.6735 26.4293 21.6622 26.452 21.6622C26.0099 21.6622 25.6528 22.0178 25.6528 22.458C25.6528 22.7402 25.8002 22.9886 26.0213 23.1297V23.1353H25.9986L29.8697 26.9903C30.0794 27.1991 30.4139 27.1991 30.6236 26.9903C30.8389 26.7701 30.8389 26.4371 30.6292 26.2283Z" fill="white"/>
</svg>
