<svg width="327" height="87" viewBox="0 0 327 87" fill="none" xmlns="http://www.w3.org/2000/svg">
<path d="M123.535 34.103C123.041 34.103 122.62 34.5204 122.62 35.0115V48.4537C122.62 54.3216 119.433 57.317 114.478 57.317C109.301 57.317 106.187 54.0147 106.187 48.2818V34.9992C106.187 34.5081 105.767 34.0908 105.273 34.0908C104.778 34.0908 104.358 34.5081 104.358 34.9992V48.4414C104.358 55.2546 108.522 58.9374 114.391 58.9374C120.335 58.9374 124.424 55.2178 124.424 48.2327V34.9992C124.449 34.5204 124.029 34.103 123.535 34.103ZM137.584 40.4252C134.334 40.4252 132.332 42.0579 131.146 44.1448V41.5791C131.146 41.0635 130.763 40.7075 130.269 40.7075C129.775 40.7075 129.429 41.0881 129.429 41.5791V57.8448C129.429 58.3604 129.812 58.7164 130.306 58.7164C130.8 58.7164 131.146 58.3727 131.146 57.8448V48.3186C131.146 44.6358 133.84 41.9965 137.336 41.9965C140.944 41.9965 143.008 44.3903 143.008 48.0363V57.8325C143.008 58.3481 143.391 58.7041 143.885 58.7041C144.379 58.7041 144.725 58.3604 144.725 57.8325V47.7171C144.713 43.4819 142.093 40.4252 137.584 40.4252ZM150.112 33.7225C149.519 33.7225 149.062 34.1767 149.062 34.7659V35.3552C149.062 35.9444 149.519 36.3986 150.112 36.3986C150.706 36.3986 151.2 35.9444 151.2 35.3552V34.7659C151.2 34.1644 150.706 33.7225 150.112 33.7225ZM150.112 40.7075C149.618 40.7075 149.272 41.0881 149.272 41.5791V57.8448C149.272 58.3604 149.655 58.7164 150.15 58.7164C150.644 58.7164 150.99 58.3727 150.99 57.8448V41.5668C150.99 41.0512 150.607 40.7075 150.112 40.7075ZM163.815 42.4016C164.235 42.4016 164.618 42.0579 164.618 41.6405C164.618 41.2231 164.235 40.8426 163.815 40.8426H158.218V35.9076C158.218 35.4166 157.835 35.036 157.341 35.036C156.846 35.036 156.5 35.4166 156.5 35.9076V40.8426H154.573C154.153 40.8426 153.77 41.1863 153.77 41.6037C153.77 42.0211 154.153 42.4016 154.573 42.4016H156.5V54.0147C156.5 57.3906 158.737 58.876 161.505 58.876C162.518 58.876 163.321 58.6673 164.025 58.4218C164.371 58.2868 164.581 58.0412 164.581 57.6975C164.581 57.2801 164.198 56.9364 163.815 56.9364C163.568 56.9364 163.012 57.2801 161.789 57.2801C159.725 57.2801 158.218 56.3717 158.218 53.8428V42.4139H163.815V42.4016ZM173.712 40.4252C168.881 40.4252 165.248 44.5254 165.248 49.669V49.7427C165.248 55.2669 169.301 58.9865 173.996 58.9865C177.209 58.9865 179.211 57.8448 180.953 56.1016C181.163 55.8929 181.237 55.6842 181.237 55.5124C181.237 55.0582 180.854 54.7144 180.397 54.7144C180.15 54.7144 179.977 54.8126 179.841 54.96C178.408 56.3471 176.628 57.3906 174.071 57.3906C170.574 57.3906 167.386 54.8249 167.077 50.4056H167.09C167.09 50.4056 167.065 49.2393 167.09 48.8097C167.09 48.8097 167.102 48.6624 167.102 48.6378C167.102 48.6624 167.102 48.7115 167.09 48.8097C167.435 44.9182 170.141 41.9965 173.651 41.9965C177.74 41.9965 179.804 45.2987 180.051 48.8711H174.293V48.8833C173.873 48.8833 173.527 49.2271 173.527 49.6444C173.527 50.0618 173.873 50.4056 174.293 50.4056H181.064C181.484 50.4056 181.904 50.025 181.904 49.6076C181.892 44.5254 178.716 40.4252 173.712 40.4252ZM201.081 33.0596C200.586 33.0596 200.241 33.4033 200.241 33.9312V44.6727C198.77 42.4507 196.46 40.4374 192.901 40.4374C188.601 40.4374 184.227 43.9484 184.227 49.7181V49.7918C184.227 55.5615 188.601 58.9988 192.901 58.9988C196.435 58.9988 198.708 56.9487 200.241 54.6162V57.8448C200.241 58.3604 200.624 58.7164 201.118 58.7164C201.612 58.7164 201.958 58.3727 201.958 57.8448V33.9312C201.958 33.4033 201.575 33.0596 201.081 33.0596ZM200.339 49.7304C200.339 54.2479 196.768 57.3415 193.062 57.3415C189.318 57.3415 186.068 54.3584 186.068 49.6936V49.6199C186.068 44.8568 189.182 42.0456 193.062 42.0456C196.768 42.0456 200.339 45.1023 200.339 49.6567V49.7304ZM229.833 48.3432C229.858 48.2818 229.87 48.2204 229.882 48.1468C233.923 47.5453 236.876 45.2374 236.876 41.2231V41.1495C236.876 39.4063 236.172 37.7736 235.022 36.6319C233.552 35.171 231.143 34.2381 228.128 34.2381H218.75C218.255 34.2381 217.835 34.6554 217.835 35.1465V57.7957C217.835 58.2868 218.255 58.7041 218.75 58.7041C219.244 58.7041 219.664 58.2868 219.664 57.7957V35.9076H228.017C232.452 35.9076 235.047 37.9577 235.047 41.2231V41.2968C235.047 44.5622 232.415 46.5632 228.746 46.821C228.733 46.821 228.733 46.821 228.721 46.821C228.078 46.821 227.559 47.3366 227.559 47.9749C227.559 48.2695 227.671 48.5273 227.856 48.736H227.844L235.171 58.2131C235.381 58.4954 235.628 58.7041 235.974 58.7041C236.468 58.7041 236.913 58.2499 236.913 57.7712C236.913 57.5625 236.814 57.3538 236.629 57.1451L229.833 48.3432ZM248.478 40.4252C243.165 40.4252 239.285 44.7341 239.285 49.7058V49.7795C239.285 54.7513 243.128 58.9865 248.416 58.9865C253.729 58.9865 257.609 54.6776 257.609 49.7058V49.6322C257.609 44.6604 253.766 40.4252 248.478 40.4252ZM255.756 49.7672C255.756 53.9411 252.716 57.3783 248.478 57.3783C244.351 57.3783 241.139 53.9779 241.139 49.6936V49.6199C241.139 45.4461 244.178 42.0088 248.416 42.0088C252.543 42.0088 255.756 45.4092 255.756 49.6936V49.7672ZM270.237 40.4252C266.703 40.4252 264.43 42.4753 262.897 44.8077V33.9312C262.897 33.4156 262.514 33.0596 262.02 33.0596C261.526 33.0596 261.18 33.4033 261.18 33.9312V57.8325C261.18 58.3236 261.563 58.7041 262.057 58.7041C262.552 58.7041 262.897 58.3236 262.897 57.8325V54.739C264.368 56.9609 266.678 58.9742 270.237 58.9742C274.537 58.9742 278.911 55.4633 278.911 49.6936V49.6199C278.911 43.8625 274.537 40.4252 270.237 40.4252ZM277.057 49.7672C277.057 54.5303 273.944 57.3415 270.064 57.3415C266.357 57.3415 262.786 54.2848 262.786 49.7304V49.6567C262.786 45.1392 266.357 42.0456 270.064 42.0456C273.808 42.0456 277.057 45.0287 277.057 49.6936V49.7672ZM290.575 40.4252C285.262 40.4252 281.382 44.7341 281.382 49.7058V49.7795C281.382 54.7513 285.225 58.9865 290.513 58.9865C295.826 58.9865 299.706 54.6776 299.706 49.7058V49.6322C299.706 44.6604 295.863 40.4252 290.575 40.4252ZM297.852 49.7672C297.852 53.9411 294.813 57.3783 290.575 57.3783C286.448 57.3783 283.235 53.9779 283.235 49.6936V49.6199C283.235 45.4461 286.275 42.0088 290.513 42.0088C294.64 42.0088 297.852 45.4092 297.852 49.6936V49.7672ZM310.913 42.4016C311.333 42.4016 311.716 42.0579 311.716 41.6405C311.716 41.2231 311.333 40.8426 310.913 40.8426H305.315V35.9076C305.315 35.4166 304.932 35.036 304.438 35.036C303.944 35.036 303.598 35.4166 303.598 35.9076V40.8426H301.67C301.25 40.8426 300.867 41.1863 300.867 41.6037C300.867 42.0211 301.25 42.4016 301.67 42.4016H303.598V54.0147C303.598 57.3906 305.834 58.876 308.602 58.876C309.615 58.876 310.418 58.6673 311.123 58.4218C311.469 58.2868 311.679 58.0412 311.679 57.6975C311.679 57.2801 311.296 56.9364 310.913 56.9364C310.666 56.9364 310.11 57.2801 308.886 57.2801C306.823 57.2801 305.315 56.3717 305.315 53.8428V42.4139H310.913V42.4016ZM321.131 48.6992C318.573 47.9749 316.164 47.2384 316.164 45.2619V45.1883C316.164 43.4205 317.77 42.0947 320.217 42.0947C321.934 42.0947 323.639 42.6471 325.184 43.5556C325.283 43.6292 325.468 43.6906 325.678 43.6906C326.135 43.6906 326.518 43.31 326.518 42.8558C326.518 42.4753 326.271 42.2297 326.061 42.0947C324.344 41.1249 322.218 40.4988 320.291 40.4988C316.831 40.4988 314.422 42.5489 314.422 45.397V45.4706C314.422 48.6378 317.634 49.4971 320.538 50.3319C323.022 51.0316 325.258 51.7927 325.258 53.8797V53.9533C325.258 56.0034 323.367 57.3292 320.958 57.3292C318.82 57.3292 316.868 56.6295 315.015 55.316C314.879 55.2178 314.669 55.1441 314.459 55.1441C314.002 55.1441 313.619 55.5247 313.619 55.9789C313.619 56.2612 313.792 56.5313 313.928 56.6418C315.744 57.9921 318.437 58.9374 320.847 58.9374C324.269 58.9374 327 56.9241 327 53.7569V53.6833C327.012 50.5406 323.998 49.4971 321.131 48.6992Z" fill="white"/>
<path d="M43.7771 0.75C67.5483 0.75 86.8166 19.8888 86.8166 43.4939C86.8166 67.0992 67.5481 86.25 43.7771 86.25C20.0064 86.25 0.75 67.0995 0.75 43.4939C0.75 19.8885 20.0061 0.75 43.7771 0.75Z" stroke="white" stroke-width="1.5"/>
<path fill-rule="evenodd" clip-rule="evenodd" d="M33.5834 23.7909L52.7104 42.7941C53.1676 43.2483 53.1676 43.9726 52.7104 44.4268C52.2532 44.881 51.5242 44.881 51.067 44.4268L31.94 25.4236C31.4829 24.9693 31.4829 24.2451 31.94 23.7909C32.3849 23.3366 33.1262 23.3366 33.5834 23.7909Z" fill="#FF0000"/>
<path fill-rule="evenodd" clip-rule="evenodd" d="M44.506 43.9355C44.506 43.9355 44.506 45.5682 44.506 46.1084C44.506 51.9395 39.749 56.6535 33.8922 56.6535C28.0232 56.6535 23.2785 51.9272 23.2785 46.1084C23.2785 42.7447 23.2785 33.5377 23.2785 33.5377C23.2785 32.8994 22.7595 32.3838 22.117 32.3838C21.4745 32.3838 20.9556 32.8994 20.9556 33.5377V45.961C20.9556 45.9733 20.9556 45.9856 20.9556 45.9856C20.9556 46.0224 20.9556 46.0593 20.9556 46.0961C20.9556 53.2039 26.7505 58.9613 33.9046 58.9613C41.0587 58.9613 46.8536 53.2039 46.8536 46.0961C46.8536 45.5805 46.8536 43.9232 46.8536 43.9232L44.5307 41.6153V43.9355H44.506ZM66.7714 57.0463L59.2343 49.5579C59.2713 49.4965 59.2961 49.4229 59.3208 49.3615C63.5959 48.8705 66.9073 45.2736 66.9073 40.9033C66.9073 36.2385 63.1388 32.4574 58.4682 32.3838V32.4206C58.3694 32.3961 58.2829 32.3838 58.1717 32.3838H45.964L48.2869 34.6917H58.1717C58.2705 34.6917 58.3694 34.6794 58.4682 34.6549V34.704C61.8537 34.7776 64.572 37.5274 64.572 40.9156C64.572 44.3038 61.8537 47.0413 58.4682 47.1273V47.1395C58.4682 47.1395 57.6156 47.115 57.6651 47.115C56.7013 47.115 55.9229 47.8884 55.9229 48.8459C55.9229 49.4597 56.2441 49.9999 56.726 50.3068V50.319H56.6766L65.1157 58.7035C65.5729 59.1578 66.3019 59.1578 66.759 58.7035C67.2286 58.2248 67.2286 57.5005 66.7714 57.0463Z" fill="white"/>
</svg>
